<svg width="30" height="30" viewBox="0 0 30 30" fill="none" xmlns="http://www.w3.org/2000/svg">
<path d="M26.25 5.85938H18.75C18.0026 5.85981 17.2673 6.04839 16.612 6.40773C15.9566 6.76708 15.4022 7.28561 15 7.91555C14.5978 7.28561 14.0434 6.76708 13.388 6.40773C12.7327 6.04839 11.9974 5.85981 11.25 5.85938H3.75C3.31503 5.85987 2.89802 6.03288 2.59045 6.34045C2.28288 6.64802 2.10987 7.06503 2.10938 7.5V22.5C2.10987 22.935 2.28288 23.352 2.59045 23.6595C2.89802 23.9671 3.31503 24.1401 3.75 24.1406H11.25C12.0578 24.1416 12.8322 24.4629 13.4034 25.0341C13.9746 25.6053 14.2959 26.3797 14.2969 27.1875C14.2969 27.374 14.371 27.5528 14.5028 27.6847C14.6347 27.8165 14.8135 27.8906 15 27.8906C15.1865 27.8906 15.3653 27.8165 15.4972 27.6847C15.629 27.5528 15.7031 27.374 15.7031 27.1875C15.7041 26.3797 16.0254 25.6053 16.5966 25.0341C17.1678 24.4629 17.9422 24.1416 18.75 24.1406H26.25C26.685 24.1401 27.102 23.9671 27.4095 23.6595C27.7171 23.352 27.8901 22.935 27.8906 22.5V7.5C27.8901 7.06503 27.7171 6.64802 27.4095 6.34045C27.102 6.03288 26.685 5.85987 26.25 5.85938ZM11.25 22.7344H3.75C3.68787 22.7343 3.62831 22.7096 3.58437 22.6656C3.54044 22.6217 3.51572 22.5621 3.51562 22.5V7.5C3.51572 7.43787 3.54044 7.37831 3.58437 7.33437C3.62831 7.29044 3.68787 7.26572 3.75 7.26562H11.25C12.0578 7.26656 12.8322 7.58786 13.4034 8.15906C13.9746 8.73026 14.2959 9.5047 14.2969 10.3125V23.9428C13.4727 23.1658 12.3826 22.7335 11.25 22.7344ZM26.4844 22.5C26.4843 22.5621 26.4596 22.6217 26.4156 22.6656C26.3717 22.7096 26.3121 22.7343 26.25 22.7344H18.75C17.6171 22.7338 16.527 23.1667 15.7031 23.9443V10.3125C15.7041 9.5047 16.0254 8.73026 16.5966 8.15906C17.1678 7.58786 17.9422 7.26656 18.75 7.26562H26.25C26.3121 7.26572 26.3717 7.29044 26.4156 7.33437C26.4596 7.37831 26.4843 7.43787 26.4844 7.5V22.5Z" fill="#6FFFE9"/>
</svg>
