<svg width="20" height="20" viewBox="0 0 20 20" fill="none" xmlns="http://www.w3.org/2000/svg">
<path d="M15.8325 1.66666H7.49917C6.58 1.66666 5.8325 2.41416 5.8325 3.33333V7.98833L1.91 11.9108C1.7935 12.0274 1.71416 12.1758 1.68202 12.3375C1.64988 12.4991 1.66638 12.6666 1.72944 12.8189C1.7925 12.9711 1.89928 13.1013 2.03629 13.1928C2.1733 13.2844 2.33438 13.3333 2.49917 13.3333V17.5C2.49917 17.721 2.58697 17.933 2.74325 18.0893C2.89953 18.2455 3.11149 18.3333 3.3325 18.3333H16.6658C16.8869 18.3333 17.0988 18.2455 17.2551 18.0893C17.4114 17.933 17.4992 17.721 17.4992 17.5V3.33333C17.4992 2.41416 16.7517 1.66666 15.8325 1.66666ZM9.16584 16.6667H4.16584V12.0117L6.66584 9.51166L9.16584 12.0117V16.6667ZM15.8325 16.6667H10.8325V13.3333C10.9975 13.3337 11.1588 13.285 11.2961 13.1935C11.4334 13.102 11.5404 12.9718 11.6035 12.8194C11.6666 12.667 11.683 12.4992 11.6507 12.3375C11.6183 12.1757 11.5386 12.0272 11.4217 11.9108L7.49917 7.98833V3.33333H15.8325V16.6667Z" fill="#264653" fill-opacity="0.5"/>
<path d="M9.16732 5H10.834V6.66667H9.16732V5ZM12.5007 5H14.1673V6.66667H12.5007V5ZM12.5007 8.35917H14.1673V10H12.5007V8.35917ZM12.5007 11.6667H14.1673V13.3333H12.5007V11.6667ZM5.83398 12.5H7.50065V14.1667H5.83398V12.5Z" fill="#264653" fill-opacity="0.5"/>
</svg>
