<svg width="30" height="30" viewBox="0 0 30 30" fill="none" xmlns="http://www.w3.org/2000/svg">
<g clip-path="url(#clip0)">
<path fill-rule="evenodd" clip-rule="evenodd" d="M8.26125 2.51625C10.1353 0.900253 12.5255 0.00775972 15 0C20.0438 0 24.2306 3.75 24.6863 8.58562C27.6713 9.0075 30 11.5069 30 14.5744C30 17.9419 27.1912 20.625 23.7881 20.625H18.75C18.5014 20.625 18.2629 20.5262 18.0871 20.3504C17.9113 20.1746 17.8125 19.9361 17.8125 19.6875C17.8125 19.4389 17.9113 19.2004 18.0871 19.0246C18.2629 18.8488 18.5014 18.75 18.75 18.75H23.79C26.2106 18.75 28.125 16.8525 28.125 14.5744C28.125 12.2944 26.2125 10.3969 23.7881 10.3969H22.8506V9.45938C22.8525 5.29688 19.365 1.875 15 1.875C12.9748 1.88309 11.0191 2.61456 9.48563 3.9375C8.06625 5.16 7.32375 6.63375 7.32375 7.79063V8.63063L6.48938 8.7225C3.87 9.00937 1.875 11.16 1.875 13.7212C1.875 16.4719 4.18125 18.75 7.08938 18.75H11.25C11.4986 18.75 11.7371 18.8488 11.9129 19.0246C12.0887 19.2004 12.1875 19.4389 12.1875 19.6875C12.1875 19.9361 12.0887 20.1746 11.9129 20.3504C11.7371 20.5262 11.4986 20.625 11.25 20.625H7.08938C3.2025 20.625 0 17.5613 0 13.7212C0 10.4156 2.37375 7.67812 5.51625 6.98438C5.78437 5.36625 6.825 3.75375 8.26125 2.51625Z" fill="#6FFFE9"/>
<path fill-rule="evenodd" clip-rule="evenodd" d="M14.3355 29.7262C14.4226 29.8136 14.526 29.8828 14.6399 29.9301C14.7538 29.9773 14.8759 30.0017 14.9992 30.0017C15.1225 30.0017 15.2446 29.9773 15.3585 29.9301C15.4724 29.8828 15.5759 29.8136 15.663 29.7262L21.288 24.1012C21.464 23.9252 21.5629 23.6865 21.5629 23.4375C21.5629 23.1885 21.464 22.9498 21.288 22.7737C21.1119 22.5977 20.8732 22.4988 20.6242 22.4988C20.3753 22.4988 20.1365 22.5977 19.9605 22.7737L15.9367 26.7994V10.3125C15.9367 10.0639 15.838 9.8254 15.6621 9.64959C15.4863 9.47377 15.2479 9.375 14.9992 9.375C14.7506 9.375 14.5121 9.47377 14.3363 9.64959C14.1605 9.8254 14.0617 10.0639 14.0617 10.3125V26.7994L10.038 22.7737C9.86194 22.5977 9.62319 22.4988 9.37423 22.4988C9.12528 22.4988 8.88652 22.5977 8.71048 22.7737C8.53444 22.9498 8.43555 23.1885 8.43555 23.4375C8.43555 23.6865 8.53444 23.9252 8.71048 24.1012L14.3355 29.7262Z" fill="#6FFFE9"/>
</g>
<defs>
<clipPath id="clip0">
<rect width="30" height="30" fill="white"/>
</clipPath>
</defs>
</svg>
