<svg width="22" height="27" viewBox="0 0 22 27" fill="none" xmlns="http://www.w3.org/2000/svg">
<path d="M20.375 0.8125H4.4375C3.44329 0.813648 2.49013 1.2091 1.78712 1.91212C1.0841 2.61513 0.688648 3.56829 0.6875 4.5625V25.1875C0.6875 25.4361 0.786272 25.6746 0.962088 25.8504C1.1379 26.0262 1.37636 26.125 1.625 26.125H18.5C18.7486 26.125 18.9871 26.0262 19.1629 25.8504C19.3387 25.6746 19.4375 25.4361 19.4375 25.1875C19.4375 24.9389 19.3387 24.7004 19.1629 24.5246C18.9871 24.3488 18.7486 24.25 18.5 24.25H2.5625C2.56306 23.7529 2.76078 23.2763 3.11229 22.9248C3.4638 22.5733 3.94039 22.3756 4.4375 22.375H20.375C20.6236 22.375 20.8621 22.2762 21.0379 22.1004C21.2137 21.9246 21.3125 21.6861 21.3125 21.4375V1.75C21.3125 1.50136 21.2137 1.2629 21.0379 1.08709C20.8621 0.911272 20.6236 0.8125 20.375 0.8125ZM10.0627 2.6875H15.6877V11.1252L13.4367 9.4375C13.2744 9.31576 13.077 9.24994 12.8742 9.24994C12.6713 9.24994 12.4739 9.31576 12.3117 9.4375L10.0629 11.1248L10.0627 2.6875ZM19.4375 20.5H4.4375C3.77901 20.4992 3.13206 20.6728 2.5625 21.0033V4.5625C2.56306 4.06539 2.76078 3.5888 3.11229 3.23729C3.4638 2.88578 3.94039 2.68806 4.4375 2.6875H8.18773V13C8.18772 13.1741 8.2362 13.3448 8.32773 13.4929C8.41927 13.6411 8.55025 13.7608 8.706 13.8386C8.86174 13.9165 9.03609 13.9494 9.20951 13.9338C9.38293 13.9181 9.54857 13.8545 9.68785 13.75L12.8745 11.3594L16.063 13.75C16.2023 13.8544 16.3679 13.918 16.5412 13.9336C16.7146 13.9492 16.8889 13.9162 17.0445 13.8383C17.2002 13.7605 17.3312 13.6408 17.4227 13.4927C17.5142 13.3447 17.5627 13.1741 17.5627 13V2.6875H19.4375V20.5Z" fill="#6FFFE9"/>
</svg>
