<svg width="20" height="20" viewBox="0 0 20 20" fill="none" xmlns="http://www.w3.org/2000/svg">
<path d="M9.99883 17L9.67883 16.64C9.47883 16.44 4.79883 10.92 4.79883 7.59999C4.79883 4.71999 7.11883 2.39999 9.99883 2.39999C12.8788 2.39999 15.1988 4.71999 15.1988 7.59999C15.1988 10.92 10.5188 16.44 10.3188 16.68L9.99883 17ZM9.99883 3.19999C7.55883 3.19999 5.59883 5.15999 5.59883 7.59999C5.59883 10.16 8.95883 14.48 9.99883 15.76C11.0388 14.48 14.3988 10.16 14.3988 7.59999C14.3988 5.15999 12.4388 3.19999 9.99883 3.19999Z" fill="#264653" fill-opacity="0.5"/>
<path d="M10 9.60001C8.88 9.60001 8 8.72001 8 7.60001C8 6.48001 8.88 5.60001 10 5.60001C11.12 5.60001 12 6.48001 12 7.60001C12 8.72001 11.12 9.60001 10 9.60001ZM10 6.40001C9.32 6.40001 8.8 6.92001 8.8 7.60001C8.8 8.28001 9.32 8.80001 10 8.80001C10.68 8.80001 11.2 8.28001 11.2 7.60001C11.2 6.92001 10.68 6.40001 10 6.40001Z" fill="#264653" fill-opacity="0.5"/>
</svg>
