<svg width="30" height="30" viewBox="0 0 30 30" fill="none" xmlns="http://www.w3.org/2000/svg">
<path fill-rule="evenodd" clip-rule="evenodd" d="M8.27742 2.51625C10.0723 0.900253 12.3614 0.00775972 14.7314 0C19.5621 0 23.572 3.75 24.0084 8.58562C26.8673 9.0075 29.0976 11.5069 29.0976 14.5744C29.0976 17.9419 26.4076 20.625 23.1482 20.625H18.323C18.0848 20.625 17.8565 20.5262 17.6881 20.3504C17.5197 20.1746 17.4251 19.9361 17.4251 19.6875C17.4251 19.4389 17.5197 19.2004 17.6881 19.0246C17.8565 18.8488 18.0848 18.75 18.323 18.75H23.15C25.4684 18.75 27.3019 16.8525 27.3019 14.5744C27.3019 12.2944 25.4702 10.3969 23.1482 10.3969H22.2503V9.45938C22.2521 5.29688 18.912 1.875 14.7314 1.875C12.7918 1.88309 10.9187 2.61456 9.45006 3.9375C8.09066 5.16 7.37953 6.63375 7.37953 7.79063V8.63063L6.58041 8.7225C4.07171 9.00937 2.16101 11.16 2.16101 13.7212C2.16101 16.4719 4.36981 18.75 7.15506 18.75H11.1399C11.378 18.75 11.6064 18.8488 11.7748 19.0246C11.9432 19.2004 12.0378 19.4389 12.0378 19.6875C12.0378 19.9361 11.9432 20.1746 11.7748 20.3504C11.6064 20.5262 11.378 20.625 11.1399 20.625H7.15506C3.43242 20.625 0.365234 17.5612 0.365234 13.7212C0.365234 10.4156 2.63868 7.67812 5.6484 6.98437C5.9052 5.36625 6.90185 3.75375 8.27742 2.51625V2.51625Z" fill="#264653"/>
<path fill-rule="evenodd" clip-rule="evenodd" d="M14.096 29.7262C14.1794 29.8136 14.2784 29.8828 14.3875 29.9301C14.4966 29.9773 14.6136 30.0017 14.7317 30.0017C14.8498 30.0017 14.9667 29.9773 15.0758 29.9301C15.1849 29.8828 15.284 29.8136 15.3674 29.7262L20.7547 24.1012C20.9233 23.9252 21.018 23.6865 21.018 23.4375C21.018 23.1885 20.9233 22.9498 20.7547 22.7737C20.5861 22.5977 20.3574 22.4988 20.119 22.4988C19.8805 22.4988 19.6519 22.5977 19.4833 22.7737L15.6295 26.7994V10.3125C15.6295 10.0639 15.5349 9.8254 15.3666 9.64959C15.1982 9.47377 14.9698 9.375 14.7317 9.375C14.4935 9.375 14.2651 9.47377 14.0968 9.64959C13.9284 9.8254 13.8338 10.0639 13.8338 10.3125V26.7994L9.98004 22.7737C9.81144 22.5977 9.58277 22.4988 9.34433 22.4988C9.1059 22.4988 8.87723 22.5977 8.70863 22.7737C8.54003 22.9498 8.44531 23.1885 8.44531 23.4375C8.44531 23.6865 8.54003 23.9252 8.70863 24.1012L14.096 29.7262Z" fill="#264653"/>
</svg>
