<svg width="24" height="26" viewBox="0 0 24 26" fill="none" xmlns="http://www.w3.org/2000/svg">
<path d="M11.9998 0.8125C11.4148 0.8125 10.8298 1.01219 10.331 1.36938L8.77477 2.45312L6.98977 2.6875H6.96164L6.93164 2.71563C6.34467 2.84776 5.80727 3.1438 5.38192 3.56932C4.95657 3.99484 4.66074 4.53236 4.52883 5.11937L4.5007 5.1475V5.1775L4.26633 6.99437L3.18258 8.40062L3.15258 8.42875V8.45875C2.4982 9.50688 2.4682 10.8588 3.18258 11.8572L4.29352 13.4125L4.58789 15.0231L1.56914 19.6234L0.603516 21.0578H5.0857L6.16945 23.5778L6.84445 25.1903L7.81008 23.725L10.7707 19.2719C11.5638 19.6 12.4638 19.6281 13.2307 19.2719L16.1904 23.725L17.156 25.1875L17.831 23.575L18.9138 21.0569H23.396L22.4304 19.6206L19.4998 15.1684L19.7341 13.4106L20.8179 11.8581L20.8479 11.83V11.8019C21.5023 10.7519 21.5323 9.43188 20.8179 8.43156L19.7341 6.87813L19.3826 5.11937H19.4107C19.4107 5.09594 19.3854 5.08188 19.3826 5.06031C19.2138 3.835 18.2416 2.83844 17.0107 2.68844H16.9807L15.2229 2.45406L13.6695 1.37031C13.1846 1.015 12.6008 0.819987 11.9998 0.8125ZM11.9998 2.71563C12.2154 2.71563 12.4291 2.78125 12.5857 2.89375L14.2545 4.09375L14.4607 4.24L14.6951 4.27L16.7463 4.5625H16.7745C17.1945 4.60938 17.4907 4.90469 17.5366 5.32469V5.38281L17.9182 7.46406L17.9463 7.6675L18.0935 7.84375L19.2935 9.5125C19.5185 9.82656 19.5466 10.3506 19.2654 10.8025L18.0935 12.4431L17.9473 12.6494L17.9173 12.8837L17.6248 14.9331V14.9612C17.6102 15.108 17.56 15.2489 17.4785 15.3719L17.4195 15.4019V15.4319C17.2798 15.5986 17.0801 15.7037 16.8635 15.7244H16.8054L14.6679 16.1059L14.4335 16.1341L14.2554 16.2812L12.5866 17.4813C12.2745 17.7063 11.7204 17.7344 11.2685 17.4531L9.74414 16.2812L9.56789 16.135L9.30539 16.105L7.2532 15.8125H7.2232C7.09053 15.8017 6.96251 15.7586 6.85027 15.687C6.73802 15.6155 6.64495 15.5176 6.57914 15.4019C6.51628 15.2939 6.47608 15.1743 6.46102 15.0503V14.9922L6.08039 12.8547L6.05039 12.6203L5.90414 12.4422L4.70414 10.7734C4.47914 10.4613 4.45102 9.90719 4.73227 9.45531L5.90414 7.93094L6.05039 7.75469L6.07852 7.49219L6.34383 5.52812C6.3457 5.515 6.3682 5.51406 6.37195 5.5C6.43076 5.2745 6.54863 5.06875 6.71342 4.90396C6.8782 4.73917 7.08395 4.6213 7.30945 4.5625C7.32352 4.55875 7.32445 4.53625 7.33758 4.53437L9.30164 4.27L9.53602 4.24L9.74227 4.09375L11.411 2.89375C11.5676 2.78125 11.7823 2.71563 11.997 2.71563H11.9998ZM18.4741 16.9844L19.9104 19.1819H17.6529L17.4185 19.7678L16.7754 21.2612L14.7832 18.2144L15.222 17.8919L17.067 17.5684V17.5966C17.0904 17.5966 17.1045 17.5712 17.126 17.5684C17.6191 17.497 18.0839 17.2946 18.4723 16.9825L18.4741 16.9844ZM5.52539 17.0125C5.9257 17.3706 6.43195 17.62 6.98977 17.6875H7.01789L8.80664 17.9219L9.21633 18.2444L7.22508 21.2612L6.58102 19.7678L6.34664 19.1809H4.08727L5.52352 17.0125H5.52539Z" fill="#6FFFE9"/>
</svg>
