<svg width="24" height="24" viewBox="0 0 24 24" fill="none" xmlns="http://www.w3.org/2000/svg">
<path d="M11.9998 2.25C11.5318 2.25 11.0638 2.40975 10.6648 2.6955L9.41981 3.5625L7.99181 3.75H7.96931L7.94531 3.7725C7.47574 3.87821 7.04582 4.11504 6.70553 4.45546C6.36525 4.79587 6.12859 5.22588 6.02306 5.6955L6.00056 5.718V5.742L5.81306 7.1955L4.94606 8.3205L4.92206 8.343V8.367C4.39856 9.2055 4.37456 10.287 4.94606 11.0858L5.83481 12.33L6.07031 13.6185L3.65531 17.2987L2.88281 18.4462H6.46856L7.33556 20.4622L7.87556 21.7523L8.64806 20.58L11.0166 17.0175C11.6511 17.28 12.3711 17.3025 12.9846 17.0175L15.3523 20.58L16.1248 21.75L16.6648 20.46L17.5311 18.4455H21.1168L20.3443 17.2965L17.9998 13.7347L18.1873 12.3285L19.0543 11.0865L19.0783 11.064V11.0415C19.6018 10.2015 19.6258 9.1455 19.0543 8.34525L18.1873 7.1025L17.9061 5.6955H17.9286C17.9286 5.67675 17.9083 5.6655 17.9061 5.64825C17.7711 4.668 16.9933 3.87075 16.0086 3.75075H15.9846L14.5783 3.56325L13.3356 2.69625C12.9477 2.412 12.4807 2.25599 11.9998 2.25ZM11.9998 3.7725C12.1723 3.7725 12.3433 3.825 12.4686 3.915L13.8036 4.875L13.9686 4.992L14.1561 5.016L15.7971 5.25H15.8196C16.1556 5.2875 16.3926 5.52375 16.4293 5.85975V5.90625L16.7346 7.57125L16.7571 7.734L16.8748 7.875L17.8348 9.21C18.0148 9.46125 18.0373 9.8805 17.8123 10.242L16.8748 11.5545L16.7578 11.7195L16.7338 11.907L16.4998 13.5465V13.569C16.4881 13.6864 16.448 13.7992 16.3828 13.8975L16.3356 13.9215V13.9455C16.2238 14.0789 16.064 14.163 15.8908 14.1795H15.8443L14.1343 14.4847L13.9468 14.5072L13.8043 14.625L12.4693 15.585C12.2196 15.765 11.7763 15.7875 11.4148 15.5625L10.1953 14.625L10.0543 14.508L9.84431 14.484L8.20256 14.25H8.17856C8.07242 14.2413 7.97001 14.2069 7.88021 14.1496C7.79042 14.0924 7.71596 14.0141 7.66331 13.9215C7.61302 13.8351 7.58087 13.7394 7.56881 13.6403V13.5938L7.26431 11.8837L7.24031 11.6962L7.12331 11.5538L6.16331 10.2188C5.98331 9.969 5.96081 9.52575 6.18581 9.16425L7.12331 7.94475L7.24031 7.80375L7.26281 7.59375L7.47506 6.0225C7.47656 6.012 7.49456 6.01125 7.49756 6C7.54461 5.8196 7.6389 5.655 7.77073 5.52317C7.90256 5.39134 8.06716 5.29704 8.24756 5.25C8.25881 5.247 8.25956 5.229 8.27006 5.2275L9.84131 5.016L10.0288 4.992L10.1938 4.875L11.5288 3.915C11.6541 3.825 11.8258 3.7725 11.9976 3.7725H11.9998ZM17.1793 15.1875L18.3283 16.9455H16.5223L16.3348 17.4142L15.8203 18.609L14.2266 16.1715L14.5776 15.9135L16.0536 15.6547V15.6772C16.0723 15.6772 16.0836 15.657 16.1008 15.6547C16.4953 15.5976 16.8672 15.4357 17.1778 15.186L17.1793 15.1875ZM6.82031 15.21C7.14056 15.4965 7.54556 15.696 7.99181 15.75H8.01431L9.44531 15.9375L9.77306 16.1955L8.18006 18.609L7.66481 17.4142L7.47731 16.9447H5.66981L6.81881 15.21H6.82031Z" fill="#FFDC4E"/>
</svg>
